<svg xmlns="http://www.w3.org/2000/svg" xmlns:xlink="http://www.w3.org/1999/xlink" width="500" zoomAndPan="magnify" viewBox="0 0 375 374.999991" height="500" preserveAspectRatio="xMidYMid meet" version="1.2"><defs/><g id="ccb231977e"><g style="fill:#000000;fill-opacity:1;"><g transform="translate(37.500002, 344.381286)"><path style="stroke:none" d="M 197.078125 -148.65625 C 197.078125 -153.476562 197.21875 -158.296875 197.5 -163.109375 C 197.789062 -167.921875 197.9375 -172.59375 197.9375 -177.125 C 197.9375 -181.9375 197.863281 -186.75 197.71875 -191.5625 C 197.582031 -196.375 197.515625 -201.046875 197.515625 -205.578125 L 197.515625 -234.03125 C 197.515625 -238.851562 197.582031 -243.671875 197.71875 -248.484375 C 197.863281 -253.296875 197.9375 -258.109375 197.9375 -262.921875 C 197.9375 -267.734375 197.863281 -272.472656 197.71875 -277.140625 C 197.582031 -281.816406 197.515625 -286.5625 197.515625 -291.375 C 197.515625 -291.65625 197.441406 -291.867188 197.296875 -292.015625 C 197.148438 -292.160156 197.078125 -292.375 197.078125 -292.65625 C 196.796875 -293.21875 196.722656 -293.640625 196.859375 -293.921875 C 197.003906 -294.210938 196.9375 -294.5 196.65625 -294.78125 C 196.65625 -295.90625 196.375 -296.753906 195.8125 -297.328125 L 193.6875 -297.328125 C 191.988281 -297.328125 188.800781 -297.328125 184.125 -297.328125 C 179.457031 -297.328125 174.363281 -297.253906 168.84375 -297.109375 C 163.320312 -296.972656 158.4375 -296.90625 154.1875 -296.90625 C 149.9375 -296.90625 147.53125 -296.90625 146.96875 -296.90625 L 146.109375 -296.90625 C 144.410156 -296.90625 143.28125 -296.195312 142.71875 -294.78125 L 142.71875 -291.375 C 142.71875 -286 142.859375 -280.691406 143.140625 -275.453125 C 143.421875 -270.210938 143.5625 -264.757812 143.5625 -259.09375 C 143.5625 -253.71875 143.488281 -248.410156 143.34375 -243.171875 C 143.207031 -237.929688 143.140625 -232.476562 143.140625 -226.8125 C 143.140625 -221.4375 143 -216.128906 142.71875 -210.890625 C 142.4375 -205.648438 142.296875 -200.195312 142.296875 -194.53125 C 142.296875 -189.15625 142.4375 -183.847656 142.71875 -178.609375 C 143 -173.367188 143.140625 -167.914062 143.140625 -162.25 C 143.140625 -156.875 143 -151.566406 142.71875 -146.328125 C 142.4375 -141.085938 142.296875 -135.632812 142.296875 -129.96875 C 142.296875 -124.59375 142.503906 -119.285156 142.921875 -114.046875 C 143.347656 -108.804688 143.5625 -103.351562 143.5625 -97.6875 C 143.5625 -92.3125 143.421875 -87.003906 143.140625 -81.765625 C 142.859375 -76.523438 142.71875 -71.070312 142.71875 -65.40625 C 142.71875 -65.125 142.644531 -64.695312 142.5 -64.125 C 142.363281 -63.5625 142.4375 -63 142.71875 -62.4375 L 142.71875 -62.015625 C 142.71875 -61.734375 142.785156 -61.445312 142.921875 -61.15625 C 143.066406 -60.875 143 -60.453125 142.71875 -59.890625 C 142.71875 -59.609375 142.429688 -59.179688 141.859375 -58.609375 C 141.859375 -57.765625 141.578125 -57.203125 141.015625 -56.921875 C 140.453125 -56.628906 139.460938 -56.484375 138.046875 -56.484375 C 136.347656 -56.484375 135.210938 -56.628906 134.640625 -56.921875 C 133.796875 -56.921875 132.875 -56.921875 131.875 -56.921875 C 130.882812 -56.921875 129.96875 -57.0625 129.125 -57.34375 C 128.269531 -57.625 127.488281 -58.046875 126.78125 -58.609375 C 126.070312 -59.179688 125.296875 -59.609375 124.453125 -59.890625 C 123.316406 -60.453125 122.039062 -60.875 120.625 -61.15625 C 119.207031 -61.445312 117.789062 -61.734375 116.375 -62.015625 C 114.957031 -62.859375 113.398438 -63.632812 111.703125 -64.34375 C 110.003906 -65.050781 108.445312 -65.832031 107.03125 -66.6875 C 105.90625 -67.53125 104.84375 -68.445312 103.84375 -69.4375 C 102.851562 -70.4375 101.796875 -71.359375 100.671875 -72.203125 L 98.125 -74.75 C 97.832031 -75.039062 97.125 -75.46875 96 -76.03125 C 96 -76.59375 96 -76.875 96 -76.875 C 96 -76.875 95.570312 -77.300781 94.71875 -78.15625 L 92.59375 -80.28125 C 92.3125 -80.84375 91.957031 -81.546875 91.53125 -82.390625 C 91.101562 -83.242188 90.609375 -83.957031 90.046875 -84.53125 C 89.484375 -85.375 88.988281 -86.21875 88.5625 -87.0625 C 88.132812 -87.914062 87.640625 -88.769531 87.078125 -89.625 C 86.796875 -90.46875 86.367188 -91.3125 85.796875 -92.15625 C 85.234375 -93.007812 84.8125 -93.863281 84.53125 -94.71875 C 83.957031 -95.851562 83.316406 -96.773438 82.609375 -97.484375 C 81.898438 -98.191406 81.40625 -99.109375 81.125 -100.234375 C 79.988281 -103.066406 79.140625 -106.179688 78.578125 -109.578125 C 78.296875 -110.992188 78.15625 -112.476562 78.15625 -114.03125 C 78.15625 -115.59375 78.015625 -117.082031 77.734375 -118.5 C 76.878906 -124.164062 76.453125 -129.546875 76.453125 -134.640625 L 76.453125 -166.078125 C 76.453125 -171.453125 76.519531 -176.757812 76.65625 -182 C 76.800781 -187.238281 76.875 -192.410156 76.875 -197.515625 C 76.875 -202.890625 76.734375 -208.195312 76.453125 -213.4375 C 76.171875 -218.675781 76.03125 -223.84375 76.03125 -228.9375 C 76.03125 -234.320312 76.097656 -239.628906 76.234375 -244.859375 C 76.378906 -250.097656 76.453125 -255.269531 76.453125 -260.375 C 76.453125 -265.75 76.3125 -271.054688 76.03125 -276.296875 C 75.75 -281.535156 75.609375 -286.703125 75.609375 -291.796875 L 75.609375 -294.359375 C 75.328125 -295.203125 74.757812 -295.765625 73.90625 -296.046875 C 73.625 -296.046875 73.335938 -296.257812 73.046875 -296.6875 C 72.765625 -297.113281 72.484375 -297.328125 72.203125 -297.328125 C 68.523438 -297.328125 64.703125 -297.253906 60.734375 -297.109375 C 56.773438 -296.972656 52.8125 -296.90625 48.84375 -296.90625 C 45.164062 -296.90625 41.414062 -296.832031 37.59375 -296.6875 C 33.769531 -296.539062 29.875 -296.46875 25.90625 -296.46875 C 25.625 -296.46875 25.484375 -296.539062 25.484375 -296.6875 C 25.484375 -296.832031 25.34375 -296.90625 25.0625 -296.90625 C 23.925781 -296.90625 23.078125 -296.054688 22.515625 -294.359375 C 21.941406 -293.222656 21.65625 -292.367188 21.65625 -291.796875 C 21.65625 -287.265625 21.582031 -282.660156 21.4375 -277.984375 C 21.300781 -273.316406 21.234375 -268.578125 21.234375 -263.765625 C 21.234375 -259.234375 21.375 -254.703125 21.65625 -250.171875 C 21.945312 -245.640625 22.09375 -240.96875 22.09375 -236.15625 C 22.09375 -231.625 22.019531 -227.019531 21.875 -222.34375 C 21.726562 -217.675781 21.65625 -212.9375 21.65625 -208.125 L 21.65625 -180.515625 C 21.65625 -175.984375 21.65625 -171.378906 21.65625 -166.703125 C 21.65625 -162.035156 21.65625 -157.4375 21.65625 -152.90625 C 21.65625 -145.832031 21.726562 -138.753906 21.875 -131.671875 C 22.019531 -124.585938 22.515625 -117.507812 23.359375 -110.4375 L 24.640625 -104.484375 C 24.921875 -103.066406 25.128906 -101.648438 25.265625 -100.234375 C 25.410156 -98.828125 25.625 -97.414062 25.90625 -96 C 26.476562 -93.726562 27.1875 -91.457031 28.03125 -89.1875 C 28.882812 -86.925781 29.734375 -84.664062 30.578125 -82.40625 C 31.148438 -81.269531 31.644531 -80.132812 32.0625 -79 C 32.488281 -77.863281 32.988281 -76.734375 33.5625 -75.609375 C 33.84375 -74.472656 34.125 -73.410156 34.40625 -72.421875 C 34.6875 -71.429688 34.96875 -70.507812 35.25 -69.65625 C 35.53125 -69.09375 36.023438 -68.457031 36.734375 -67.75 C 37.441406 -67.039062 37.941406 -66.40625 38.234375 -65.84375 C 38.796875 -64.707031 39.21875 -63.640625 39.5 -62.640625 C 39.78125 -61.648438 40.207031 -60.59375 40.78125 -59.46875 C 41.0625 -58.894531 41.410156 -58.394531 41.828125 -57.96875 C 42.253906 -57.550781 42.613281 -57.054688 42.90625 -56.484375 C 43.46875 -55.359375 44.242188 -54.367188 45.234375 -53.515625 C 46.222656 -52.671875 47.003906 -51.679688 47.578125 -50.546875 C 48.140625 -49.410156 48.773438 -48.273438 49.484375 -47.140625 C 50.191406 -46.015625 50.96875 -45.023438 51.8125 -44.171875 C 52.382812 -43.328125 52.953125 -42.617188 53.515625 -42.046875 C 54.085938 -41.484375 54.65625 -40.914062 55.21875 -40.34375 C 55.78125 -39.78125 56.414062 -39.285156 57.125 -38.859375 C 57.832031 -38.441406 58.328125 -37.945312 58.609375 -37.375 L 59.890625 -36.109375 C 60.171875 -36.109375 60.3125 -35.960938 60.3125 -35.671875 C 60.3125 -35.390625 60.453125 -35.109375 60.734375 -34.828125 C 61.585938 -33.984375 62.507812 -33.273438 63.5 -32.703125 C 64.488281 -32.140625 65.410156 -31.429688 66.265625 -30.578125 C 67.109375 -30.015625 67.953125 -29.238281 68.796875 -28.25 C 69.648438 -27.257812 70.644531 -26.476562 71.78125 -25.90625 C 73.195312 -24.769531 74.539062 -23.773438 75.8125 -22.921875 C 77.09375 -22.078125 78.296875 -21.234375 79.421875 -20.390625 C 81.128906 -19.253906 82.832031 -18.191406 84.53125 -17.203125 C 86.226562 -16.210938 87.925781 -15.289062 89.625 -14.4375 C 91.039062 -13.875 92.382812 -13.378906 93.65625 -12.953125 C 94.925781 -12.523438 96.128906 -12.03125 97.265625 -11.46875 C 97.835938 -11.1875 98.472656 -10.832031 99.171875 -10.40625 C 99.878906 -9.976562 100.660156 -9.625 101.515625 -9.34375 C 102.367188 -9.0625 103.289062 -8.773438 104.28125 -8.484375 C 105.269531 -8.203125 106.332031 -7.78125 107.46875 -7.21875 C 108.875 -6.9375 110.144531 -6.582031 111.28125 -6.15625 C 112.414062 -5.726562 113.550781 -5.375 114.6875 -5.09375 L 120.203125 -3.828125 C 121.054688 -3.535156 121.90625 -3.390625 122.75 -3.390625 C 123.601562 -3.390625 124.453125 -3.25 125.296875 -2.96875 C 125.867188 -2.6875 126.578125 -2.40625 127.421875 -2.125 C 128.273438 -1.84375 128.984375 -1.703125 129.546875 -1.703125 C 130.960938 -1.421875 132.238281 -1.28125 133.375 -1.28125 C 134.507812 -1.28125 135.640625 -1.28125 136.765625 -1.28125 C 137.617188 -0.988281 139.175781 -0.84375 141.4375 -0.84375 C 145.6875 -0.5625 148.234375 -0.347656 149.078125 -0.203125 C 149.929688 -0.0664062 150.425781 -0.0664062 150.5625 -0.203125 C 150.707031 -0.347656 151.773438 -0.421875 153.765625 -0.421875 L 156.3125 -0.421875 C 156.875 -0.703125 158.003906 -0.84375 159.703125 -0.84375 C 165.085938 -0.84375 170.328125 -0.703125 175.421875 -0.421875 C 180.515625 -0.140625 185.613281 0 190.71875 0 L 191.984375 -0.84375 C 192.554688 -0.5625 193.050781 -0.488281 193.46875 -0.625 C 193.894531 -0.769531 194.25 -0.84375 194.53125 -0.84375 C 196.226562 -0.84375 197.078125 -1.691406 197.078125 -3.390625 C 197.078125 -3.960938 197.21875 -4.457031 197.5 -4.875 C 197.789062 -5.300781 197.9375 -5.800781 197.9375 -6.375 C 197.9375 -11.1875 197.863281 -15.925781 197.71875 -20.59375 C 197.582031 -25.269531 197.515625 -30.015625 197.515625 -34.828125 L 197.515625 -63.28125 C 197.515625 -68.101562 197.441406 -72.921875 197.296875 -77.734375 C 197.148438 -82.546875 197.078125 -87.21875 197.078125 -91.75 L 197.078125 -120.203125 C 197.078125 -125.015625 197.078125 -129.828125 197.078125 -134.640625 C 197.078125 -139.453125 197.078125 -144.125 197.078125 -148.65625 Z M 197.078125 -148.65625 "/></g></g><g style="fill:#8c52ff;fill-opacity:1;"><g transform="translate(224.99999, 340.560256)"><path style="stroke:none" d="M 87.5 -33.125 C 87.5 -42.1875 84.238281 -49.972656 77.71875 -56.484375 C 71.488281 -62.710938 63.847656 -65.828125 54.796875 -65.828125 C 45.160156 -65.828125 37.226562 -62.710938 31 -56.484375 C 24.488281 -49.972656 21.234375 -42.1875 21.234375 -33.125 C 21.234375 -24.351562 24.488281 -16.707031 31 -10.1875 C 37.519531 -3.394531 45.304688 0 54.359375 0 C 63.703125 0 71.488281 -3.253906 77.71875 -9.765625 C 84.238281 -16.273438 87.5 -24.0625 87.5 -33.125 Z M 87.5 -33.125 "/></g></g></g></svg>