<svg xmlns="http://www.w3.org/2000/svg" xmlns:xlink="http://www.w3.org/1999/xlink" width="500" zoomAndPan="magnify" viewBox="0 0 375 374.999991" height="500" preserveAspectRatio="xMidYMid meet" version="1.2"><defs><clipPath id="ebbafd86bb"><path d="M 187.5 0 C 83.945312 0 0 83.945312 0 187.5 C 0 291.054688 83.945312 375 187.5 375 C 291.054688 375 375 291.054688 375 187.5 C 375 83.945312 291.054688 0 187.5 0 Z M 187.5 0 "/></clipPath></defs><g id="8b6a7587f8"><g clip-rule="nonzero" clip-path="url(#ebbafd86bb)"><rect x="0" width="375" y="0" height="374.999991" style="fill:#ffeb33;fill-opacity:1;stroke:none;"/></g><g style="fill:#000000;fill-opacity:1;"><g transform="translate(67.629888, 317.513948)"><path style="stroke:none" d="M 161.484375 -121.8125 C 161.484375 -125.75 161.597656 -129.6875 161.828125 -133.625 C 162.054688 -137.570312 162.171875 -141.40625 162.171875 -145.125 C 162.171875 -149.0625 162.113281 -153.003906 162 -156.953125 C 161.882812 -160.898438 161.828125 -164.726562 161.828125 -168.4375 L 161.828125 -191.75 C 161.828125 -195.695312 161.882812 -199.640625 162 -203.578125 C 162.113281 -207.523438 162.171875 -211.472656 162.171875 -215.421875 C 162.171875 -219.367188 162.113281 -223.253906 162 -227.078125 C 161.882812 -230.910156 161.828125 -234.796875 161.828125 -238.734375 C 161.828125 -238.972656 161.769531 -239.148438 161.65625 -239.265625 C 161.539062 -239.378906 161.484375 -239.550781 161.484375 -239.78125 C 161.242188 -240.25 161.179688 -240.597656 161.296875 -240.828125 C 161.421875 -241.054688 161.363281 -241.285156 161.125 -241.515625 C 161.125 -242.453125 160.894531 -243.148438 160.4375 -243.609375 L 158.6875 -243.609375 C 157.300781 -243.609375 154.691406 -243.609375 150.859375 -243.609375 C 147.035156 -243.609375 142.859375 -243.550781 138.328125 -243.4375 C 133.804688 -243.320312 129.804688 -243.265625 126.328125 -243.265625 C 122.847656 -243.265625 120.875 -243.265625 120.40625 -243.265625 L 119.71875 -243.265625 C 118.320312 -243.265625 117.394531 -242.679688 116.9375 -241.515625 L 116.9375 -238.734375 C 116.9375 -234.328125 117.050781 -229.976562 117.28125 -225.6875 C 117.507812 -221.394531 117.625 -216.929688 117.625 -212.296875 C 117.625 -207.878906 117.566406 -203.523438 117.453125 -199.234375 C 117.335938 -194.941406 117.28125 -190.476562 117.28125 -185.84375 C 117.28125 -181.4375 117.160156 -177.082031 116.921875 -172.78125 C 116.691406 -168.488281 116.578125 -164.023438 116.578125 -159.390625 C 116.578125 -154.984375 116.691406 -150.632812 116.921875 -146.34375 C 117.160156 -142.050781 117.28125 -137.582031 117.28125 -132.9375 C 117.28125 -128.53125 117.160156 -124.179688 116.921875 -119.890625 C 116.691406 -115.597656 116.578125 -111.132812 116.578125 -106.5 C 116.578125 -102.082031 116.75 -97.726562 117.09375 -93.4375 C 117.445312 -89.144531 117.625 -84.679688 117.625 -80.046875 C 117.625 -75.640625 117.507812 -71.289062 117.28125 -67 C 117.050781 -62.707031 116.9375 -58.238281 116.9375 -53.59375 C 116.9375 -53.363281 116.875 -53.015625 116.75 -52.546875 C 116.632812 -52.085938 116.695312 -51.625 116.9375 -51.15625 L 116.9375 -50.8125 C 116.9375 -50.582031 116.992188 -50.347656 117.109375 -50.109375 C 117.222656 -49.878906 117.164062 -49.53125 116.9375 -49.0625 C 116.9375 -48.832031 116.703125 -48.488281 116.234375 -48.03125 C 116.234375 -47.332031 116.003906 -46.867188 115.546875 -46.640625 C 115.078125 -46.398438 114.265625 -46.28125 113.109375 -46.28125 C 111.710938 -46.28125 110.785156 -46.398438 110.328125 -46.640625 C 109.628906 -46.640625 108.875 -46.640625 108.0625 -46.640625 C 107.25 -46.640625 106.492188 -46.753906 105.796875 -46.984375 C 105.097656 -47.210938 104.457031 -47.554688 103.875 -48.015625 C 103.300781 -48.484375 102.664062 -48.832031 101.96875 -49.0625 C 101.039062 -49.53125 99.992188 -49.878906 98.828125 -50.109375 C 97.671875 -50.347656 96.515625 -50.582031 95.359375 -50.8125 C 94.191406 -51.507812 92.910156 -52.144531 91.515625 -52.71875 C 90.128906 -53.300781 88.859375 -53.941406 87.703125 -54.640625 C 86.773438 -55.335938 85.90625 -56.09375 85.09375 -56.90625 C 84.28125 -57.71875 83.410156 -58.46875 82.484375 -59.15625 L 80.390625 -61.25 C 80.160156 -61.476562 79.582031 -61.828125 78.65625 -62.296875 C 78.65625 -62.753906 78.65625 -62.984375 78.65625 -62.984375 C 78.65625 -62.984375 78.304688 -63.332031 77.609375 -64.03125 L 75.875 -65.78125 C 75.632812 -66.238281 75.335938 -66.816406 74.984375 -67.515625 C 74.640625 -68.210938 74.238281 -68.789062 73.78125 -69.25 C 73.3125 -69.945312 72.90625 -70.644531 72.5625 -71.34375 C 72.21875 -72.039062 71.8125 -72.738281 71.34375 -73.4375 C 71.113281 -74.125 70.765625 -74.816406 70.296875 -75.515625 C 69.835938 -76.210938 69.488281 -76.910156 69.25 -77.609375 C 68.789062 -78.535156 68.269531 -79.285156 67.6875 -79.859375 C 67.101562 -80.441406 66.695312 -81.195312 66.46875 -82.125 C 65.539062 -84.445312 64.847656 -87 64.390625 -89.78125 C 64.148438 -90.945312 64.03125 -92.164062 64.03125 -93.4375 C 64.03125 -94.71875 63.914062 -95.9375 63.6875 -97.09375 C 62.988281 -101.738281 62.640625 -106.148438 62.640625 -110.328125 L 62.640625 -136.078125 C 62.640625 -140.484375 62.695312 -144.832031 62.8125 -149.125 C 62.925781 -153.414062 62.984375 -157.648438 62.984375 -161.828125 C 62.984375 -166.234375 62.867188 -170.582031 62.640625 -174.875 C 62.410156 -179.164062 62.296875 -183.398438 62.296875 -187.578125 C 62.296875 -191.984375 62.351562 -196.332031 62.46875 -200.625 C 62.582031 -204.914062 62.640625 -209.148438 62.640625 -213.328125 C 62.640625 -217.742188 62.523438 -222.097656 62.296875 -226.390625 C 62.066406 -230.679688 61.953125 -234.914062 61.953125 -239.09375 L 61.953125 -241.171875 C 61.710938 -241.867188 61.25 -242.332031 60.5625 -242.5625 C 60.320312 -242.5625 60.085938 -242.734375 59.859375 -243.078125 C 59.628906 -243.429688 59.394531 -243.609375 59.15625 -243.609375 C 56.144531 -243.609375 53.015625 -243.550781 49.765625 -243.4375 C 46.515625 -243.320312 43.265625 -243.265625 40.015625 -243.265625 C 37.003906 -243.265625 33.929688 -243.207031 30.796875 -243.09375 C 27.660156 -242.976562 24.472656 -242.921875 21.234375 -242.921875 C 20.992188 -242.921875 20.875 -242.976562 20.875 -243.09375 C 20.875 -243.207031 20.757812 -243.265625 20.53125 -243.265625 C 19.601562 -243.265625 18.90625 -242.566406 18.4375 -241.171875 C 17.976562 -240.242188 17.75 -239.550781 17.75 -239.09375 C 17.75 -235.375 17.691406 -231.597656 17.578125 -227.765625 C 17.460938 -223.941406 17.40625 -220.0625 17.40625 -216.125 C 17.40625 -212.40625 17.519531 -208.6875 17.75 -204.96875 C 17.976562 -201.257812 18.09375 -197.4375 18.09375 -193.5 C 18.09375 -189.78125 18.035156 -186.003906 17.921875 -182.171875 C 17.804688 -178.347656 17.75 -174.46875 17.75 -170.53125 L 17.75 -147.90625 C 17.75 -144.195312 17.75 -140.425781 17.75 -136.59375 C 17.75 -132.769531 17.75 -129 17.75 -125.28125 C 17.75 -119.476562 17.804688 -113.675781 17.921875 -107.875 C 18.035156 -102.082031 18.441406 -96.285156 19.140625 -90.484375 L 20.1875 -85.609375 C 20.414062 -84.453125 20.585938 -83.289062 20.703125 -82.125 C 20.816406 -80.96875 20.992188 -79.8125 21.234375 -78.65625 C 21.691406 -76.800781 22.269531 -74.941406 22.96875 -73.078125 C 23.664062 -71.222656 24.363281 -69.367188 25.0625 -67.515625 C 25.519531 -66.585938 25.921875 -65.660156 26.265625 -64.734375 C 26.617188 -63.804688 27.03125 -62.878906 27.5 -61.953125 C 27.726562 -61.023438 27.957031 -60.15625 28.1875 -59.34375 C 28.414062 -58.53125 28.648438 -57.773438 28.890625 -57.078125 C 29.117188 -56.609375 29.519531 -56.082031 30.09375 -55.5 C 30.675781 -54.925781 31.085938 -54.40625 31.328125 -53.9375 C 31.785156 -53.007812 32.128906 -52.140625 32.359375 -51.328125 C 32.597656 -50.515625 32.945312 -49.644531 33.40625 -48.71875 C 33.632812 -48.257812 33.921875 -47.851562 34.265625 -47.5 C 34.617188 -47.15625 34.914062 -46.75 35.15625 -46.28125 C 35.613281 -45.351562 36.25 -44.539062 37.0625 -43.84375 C 37.875 -43.15625 38.515625 -42.34375 38.984375 -41.40625 C 39.441406 -40.476562 39.957031 -39.550781 40.53125 -38.625 C 41.113281 -37.695312 41.753906 -36.882812 42.453125 -36.1875 C 42.921875 -35.5 43.382812 -34.921875 43.84375 -34.453125 C 44.3125 -33.984375 44.773438 -33.519531 45.234375 -33.0625 C 45.703125 -32.59375 46.222656 -32.1875 46.796875 -31.84375 C 47.378906 -31.5 47.789062 -31.09375 48.03125 -30.625 L 49.0625 -29.578125 C 49.300781 -29.578125 49.421875 -29.460938 49.421875 -29.234375 C 49.421875 -29.003906 49.535156 -28.769531 49.765625 -28.53125 C 50.460938 -27.84375 51.21875 -27.265625 52.03125 -26.796875 C 52.84375 -26.328125 53.597656 -25.75 54.296875 -25.0625 C 54.984375 -24.59375 55.675781 -23.953125 56.375 -23.140625 C 57.070312 -22.328125 57.882812 -21.691406 58.8125 -21.234375 C 59.976562 -20.304688 61.082031 -19.492188 62.125 -18.796875 C 63.164062 -18.097656 64.148438 -17.398438 65.078125 -16.703125 C 66.472656 -15.773438 67.863281 -14.90625 69.25 -14.09375 C 70.644531 -13.28125 72.039062 -12.523438 73.4375 -11.828125 C 74.59375 -11.367188 75.691406 -10.960938 76.734375 -10.609375 C 77.773438 -10.265625 78.765625 -9.859375 79.703125 -9.390625 C 80.160156 -9.160156 80.675781 -8.867188 81.25 -8.515625 C 81.832031 -8.171875 82.472656 -7.882812 83.171875 -7.65625 C 83.867188 -7.425781 84.625 -7.191406 85.4375 -6.953125 C 86.25 -6.722656 87.117188 -6.378906 88.046875 -5.921875 C 89.203125 -5.679688 90.242188 -5.390625 91.171875 -5.046875 C 92.109375 -4.703125 93.039062 -4.410156 93.96875 -4.171875 L 98.484375 -3.125 C 99.179688 -2.894531 99.878906 -2.78125 100.578125 -2.78125 C 101.273438 -2.78125 101.972656 -2.664062 102.671875 -2.4375 C 103.128906 -2.207031 103.707031 -1.972656 104.40625 -1.734375 C 105.101562 -1.503906 105.679688 -1.390625 106.140625 -1.390625 C 107.304688 -1.160156 108.351562 -1.046875 109.28125 -1.046875 C 110.207031 -1.046875 111.132812 -1.046875 112.0625 -1.046875 C 112.757812 -0.816406 114.035156 -0.703125 115.890625 -0.703125 C 119.367188 -0.460938 121.457031 -0.285156 122.15625 -0.171875 C 122.851562 -0.0546875 123.257812 -0.0546875 123.375 -0.171875 C 123.488281 -0.285156 124.359375 -0.34375 125.984375 -0.34375 L 128.0625 -0.34375 C 128.53125 -0.582031 129.460938 -0.703125 130.859375 -0.703125 C 135.265625 -0.703125 139.554688 -0.582031 143.734375 -0.34375 C 147.910156 -0.113281 152.085938 0 156.265625 0 L 157.296875 -0.703125 C 157.765625 -0.460938 158.171875 -0.398438 158.515625 -0.515625 C 158.867188 -0.640625 159.160156 -0.703125 159.390625 -0.703125 C 160.785156 -0.703125 161.484375 -1.394531 161.484375 -2.78125 C 161.484375 -3.25 161.597656 -3.65625 161.828125 -4 C 162.054688 -4.351562 162.171875 -4.757812 162.171875 -5.21875 C 162.171875 -9.164062 162.113281 -13.050781 162 -16.875 C 161.882812 -20.707031 161.828125 -24.59375 161.828125 -28.53125 L 161.828125 -51.859375 C 161.828125 -55.796875 161.769531 -59.738281 161.65625 -63.6875 C 161.539062 -67.632812 161.484375 -71.460938 161.484375 -75.171875 L 161.484375 -98.484375 C 161.484375 -102.429688 161.484375 -106.375 161.484375 -110.3125 C 161.484375 -114.257812 161.484375 -118.09375 161.484375 -121.8125 Z M 161.484375 -121.8125 "/></g></g><g style="fill:#702ef4;fill-opacity:1;"><g transform="translate(221.256508, 314.383272)"><path style="stroke:none" d="M 71.6875 -27.140625 C 71.6875 -34.566406 69.019531 -40.945312 63.6875 -46.28125 C 58.582031 -51.382812 52.316406 -53.9375 44.890625 -53.9375 C 37.003906 -53.9375 30.507812 -51.382812 25.40625 -46.28125 C 20.070312 -40.945312 17.40625 -34.566406 17.40625 -27.140625 C 17.40625 -19.953125 20.070312 -13.691406 25.40625 -8.359375 C 30.738281 -2.785156 37.117188 0 44.546875 0 C 52.203125 0 58.582031 -2.664062 63.6875 -8 C 69.019531 -13.34375 71.6875 -19.722656 71.6875 -27.140625 Z M 71.6875 -27.140625 "/></g></g></g></svg>